<svg id="visual" viewBox="0 0 900 600" width="900" height="600" xmlns="http://www.w3.org/2000/svg" xmlns:xlink="http://www.w3.org/1999/xlink" version="1.1"><path d="M728 600L710 600L710 545L728 545L728 491L728 491L728 436L809 436L809 382L818 382L818 327L737 327L737 273L836 273L836 218L809 218L809 164L818 164L818 109L827 109L827 55L764 55L764 0L900 0L900 55L900 55L900 109L900 109L900 164L900 164L900 218L900 218L900 273L900 273L900 327L900 327L900 382L900 382L900 436L900 436L900 491L900 491L900 545L900 545L900 600L900 600Z" fill="#ffffff"></path><path d="M638 600L629 600L629 545L665 545L665 491L575 491L575 436L755 436L755 382L701 382L701 327L593 327L593 273L710 273L710 218L755 218L755 164L737 164L737 109L746 109L746 55L674 55L674 0L765 0L765 55L828 55L828 109L819 109L819 164L810 164L810 218L837 218L837 273L738 273L738 327L819 327L819 382L810 382L810 436L729 436L729 491L729 491L729 545L711 545L711 600L729 600Z" fill="#ffe2cc"></path><path d="M395 600L269 600L269 545L494 545L494 491L377 491L377 436L566 436L566 382L386 382L386 327L458 327L458 273L485 273L485 218L314 218L314 164L530 164L530 109L413 109L413 55L521 55L521 0L675 0L675 55L747 55L747 109L738 109L738 164L756 164L756 218L711 218L711 273L594 273L594 327L702 327L702 382L756 382L756 436L576 436L576 491L666 491L666 545L630 545L630 600L639 600Z" fill="#ffd1ae"></path><path d="M206 600L197 600L197 545L350 545L350 491L197 491L197 436L296 436L296 382L260 382L260 327L323 327L323 273L305 273L305 218L170 218L170 164L278 164L278 109L143 109L143 55L287 55L287 0L522 0L522 55L414 55L414 109L531 109L531 164L315 164L315 218L486 218L486 273L459 273L459 327L387 327L387 382L567 382L567 436L378 436L378 491L495 491L495 545L270 545L270 600L396 600Z" fill="#ffe2cc"></path><path d="M0 600L0 600L0 545L0 545L0 491L0 491L0 436L0 436L0 382L0 382L0 327L0 327L0 273L0 273L0 218L0 218L0 164L0 164L0 109L0 109L0 55L0 55L0 0L288 0L288 55L144 55L144 109L279 109L279 164L171 164L171 218L306 218L306 273L324 273L324 327L261 327L261 382L297 382L297 436L198 436L198 491L351 491L351 545L198 545L198 600L207 600Z" fill="#ffffff"></path></svg>