<svg id="visual" viewBox="0 0 900 600" width="900" height="600" xmlns="http://www.w3.org/2000/svg" xmlns:xlink="http://www.w3.org/1999/xlink" version="1.1"><path d="M0 157L82 157L82 139L164 139L164 61L245 61L245 91L327 91L327 55L409 55L409 133L491 133L491 181L573 181L573 151L655 151L655 109L736 109L736 97L818 97L818 109L900 109L900 91L900 0L900 0L818 0L818 0L736 0L736 0L655 0L655 0L573 0L573 0L491 0L491 0L409 0L409 0L327 0L327 0L245 0L245 0L164 0L164 0L82 0L82 0L0 0Z" fill="#ffffff"></path><path d="M0 259L82 259L82 241L164 241L164 151L245 151L245 181L327 181L327 109L409 109L409 229L491 229L491 217L573 217L573 205L655 205L655 193L736 193L736 193L818 193L818 211L900 211L900 193L900 89L900 107L818 107L818 95L736 95L736 107L655 107L655 149L573 149L573 179L491 179L491 131L409 131L409 53L327 53L327 89L245 89L245 59L164 59L164 137L82 137L82 155L0 155Z" fill="#fff3ea"></path><path d="M0 427L82 427L82 319L164 319L164 283L245 283L245 379L327 379L327 247L409 247L409 445L491 445L491 307L573 307L573 283L655 283L655 325L736 325L736 391L818 391L818 397L900 397L900 307L900 191L900 209L818 209L818 191L736 191L736 191L655 191L655 203L573 203L573 215L491 215L491 227L409 227L409 107L327 107L327 179L245 179L245 149L164 149L164 239L82 239L82 257L0 257Z" fill="#ffe8d6"></path><path d="M0 475L82 475L82 409L164 409L164 355L245 355L245 475L327 475L327 361L409 361L409 535L491 535L491 355L573 355L573 397L655 397L655 391L736 391L736 463L818 463L818 487L900 487L900 397L900 305L900 395L818 395L818 389L736 389L736 323L655 323L655 281L573 281L573 305L491 305L491 443L409 443L409 245L327 245L327 377L245 377L245 281L164 281L164 317L82 317L82 425L0 425Z" fill="#ffddc2"></path><path d="M0 601L82 601L82 601L164 601L164 601L245 601L245 601L327 601L327 601L409 601L409 601L491 601L491 601L573 601L573 601L655 601L655 601L736 601L736 601L818 601L818 601L900 601L900 601L900 395L900 485L818 485L818 461L736 461L736 389L655 389L655 395L573 395L573 353L491 353L491 533L409 533L409 359L327 359L327 473L245 473L245 353L164 353L164 407L82 407L82 473L0 473Z" fill="#ffd1ae"></path></svg>