<svg id="visual" viewBox="0 0 900 600" width="900" height="600" xmlns="http://www.w3.org/2000/svg" xmlns:xlink="http://www.w3.org/1999/xlink" version="1.1"><path d="M746 600L719 600L719 540L836 540L836 480L782 480L782 420L809 420L809 360L827 360L827 300L755 300L755 240L818 240L818 180L755 180L755 120L773 120L773 60L782 60L782 0L900 0L900 60L900 60L900 120L900 120L900 180L900 180L900 240L900 240L900 300L900 300L900 360L900 360L900 420L900 420L900 480L900 480L900 540L900 540L900 600L900 600Z" fill="#ffffff"></path><path d="M575 600L584 600L584 540L638 540L638 480L656 480L656 420L719 420L719 360L575 360L575 300L629 300L629 240L638 240L638 180L566 180L566 120L629 120L629 60L575 60L575 0L783 0L783 60L774 60L774 120L756 120L756 180L819 180L819 240L756 240L756 300L828 300L828 360L810 360L810 420L783 420L783 480L837 480L837 540L720 540L720 600L747 600Z" fill="#fff3ea"></path><path d="M350 600L422 600L422 540L314 540L314 480L422 480L422 420L314 420L314 360L368 360L368 300L413 300L413 240L341 240L341 180L404 180L404 120L503 120L503 60L422 60L422 0L576 0L576 60L630 60L630 120L567 120L567 180L639 180L639 240L630 240L630 300L576 300L576 360L720 360L720 420L657 420L657 480L639 480L639 540L585 540L585 600L576 600Z" fill="#ffe8d6"></path><path d="M287 600L287 600L287 540L251 540L251 480L323 480L323 420L188 420L188 360L305 360L305 300L350 300L350 240L197 240L197 180L251 180L251 120L377 120L377 60L368 60L368 0L423 0L423 60L504 60L504 120L405 120L405 180L342 180L342 240L414 240L414 300L369 300L369 360L315 360L315 420L423 420L423 480L315 480L315 540L423 540L423 600L351 600Z" fill="#ffddc2"></path><path d="M0 600L0 600L0 540L0 540L0 480L0 480L0 420L0 420L0 360L0 360L0 300L0 300L0 240L0 240L0 180L0 180L0 120L0 120L0 60L0 60L0 0L369 0L369 60L378 60L378 120L252 120L252 180L198 180L198 240L351 240L351 300L306 300L306 360L189 360L189 420L324 420L324 480L252 480L252 540L288 540L288 600L288 600Z" fill="#ffd1ae"></path></svg>