<svg id="visual" viewBox="0 0 900 600" width="900" height="600" xmlns="http://www.w3.org/2000/svg" xmlns:xlink="http://www.w3.org/1999/xlink" version="1.1"><path d="M0 49L90 49L90 55L180 55L180 85L270 85L270 115L360 115L360 67L450 67L450 55L540 55L540 145L630 145L630 55L720 55L720 91L810 91L810 103L900 103L900 139L900 0L900 0L810 0L810 0L720 0L720 0L630 0L630 0L540 0L540 0L450 0L450 0L360 0L360 0L270 0L270 0L180 0L180 0L90 0L90 0L0 0Z" fill="#ffffff"></path><path d="M0 115L90 115L90 241L180 241L180 211L270 211L270 187L360 187L360 253L450 253L450 229L540 229L540 241L630 241L630 253L720 253L720 235L810 235L810 277L900 277L900 283L900 137L900 101L810 101L810 89L720 89L720 53L630 53L630 143L540 143L540 53L450 53L450 65L360 65L360 113L270 113L270 83L180 83L180 53L90 53L90 47L0 47Z" fill="#fff0e4"></path><path d="M0 439L90 439L90 343L180 343L180 367L270 367L270 313L360 313L360 427L450 427L450 337L540 337L540 439L630 439L630 409L720 409L720 475L810 475L810 373L900 373L900 427L900 281L900 275L810 275L810 233L720 233L720 251L630 251L630 239L540 239L540 227L450 227L450 251L360 251L360 185L270 185L270 209L180 209L180 239L90 239L90 113L0 113Z" fill="#ffe0c8"></path><path d="M0 601L90 601L90 601L180 601L180 601L270 601L270 601L360 601L360 601L450 601L450 601L540 601L540 601L630 601L630 601L720 601L720 601L810 601L810 601L900 601L900 601L900 425L900 371L810 371L810 473L720 473L720 407L630 407L630 437L540 437L540 335L450 335L450 425L360 425L360 311L270 311L270 365L180 365L180 341L90 341L90 437L0 437Z" fill="#ffd1ae"></path></svg>